<svg width="1025" height="1025" viewBox="0 0 1025 1025" fill="none" xmlns="http://www.w3.org/2000/svg">
<g clip-path="url(#clip0_114_266)">
<path d="M512.079 976.15L237.153 845.831V495.167H787.035V845.831L512.079 976.15Z" fill="#62A9A4"/>
<path d="M512.079 976.149V549.389L237.153 441.598V845.829L512.079 976.149Z" fill="#3D4B47"/>
<path d="M237.153 524.124L512.079 708.875L787.035 524.124V495.167H237.153V524.124Z" fill="#3D4B47"/>
<path d="M512.079 642.092L210.315 499.035V437.193H813.873V499.035L512.079 642.092Z" fill="#62A9A4"/>
<path d="M512.079 580.221L210.315 437.193L512.079 294.167L813.873 437.193L512.079 580.221Z" fill="#55EFC4"/>
<path d="M443.526 482.28L392.587 460.169L569.742 376.215L620.681 398.297L443.526 482.28Z" fill="#3D4B47"/>
<path d="M512.079 580.22V642.092L210.315 499.035V437.193L512.079 580.22Z" fill="#858585"/>
</g>
<g clip-path="url(#clip1_114_266)">
<path d="M636.581 72.6903L599.264 51.1205L603.26 48.8521L640.587 70.4218L636.581 72.6903Z" fill="#D6D4D2"/>
<path d="M636.581 72.6899L599.264 51.1201C585.589 58.8624 572.26 64.6518 559.309 68.4982L596.626 90.068C609.577 86.2216 622.905 80.4321 636.581 72.6899Z" fill="#D6D4D2"/>
<path d="M559.299 68.4883C531.77 76.6447 505.937 75.9839 482.176 66.4072L519.493 87.977C543.254 97.5537 569.077 98.2145 596.616 90.058L559.299 68.4883Z" fill="#D6D4D2"/>
<path d="M516.687 86.8432L479.37 65.2734L482.186 66.4077L519.503 87.9774L516.687 86.8432Z" fill="#E9E8E6"/>
<path d="M513.89 91.2025L476.573 69.6328L479.37 65.2734L516.687 86.8432L513.89 91.2025Z" fill="#D6D4D2"/>
<path d="M476.573 69.6328C462.68 91.2618 448.053 110.642 432.771 127.705L470.088 149.274C485.37 132.212 499.987 112.841 513.88 91.2125L476.573 69.6328Z" fill="#D6D4D2"/>
<path d="M450.73 408.703L413.413 387.133C400.511 379.677 389.643 368.631 380.856 354.024C360.18 319.623 351.651 266.354 355.529 195.688L392.846 217.258C388.968 287.924 397.497 341.203 418.163 375.594C426.95 390.201 437.828 401.247 450.73 408.703Z" fill="#B2B0AF"/>
<path d="M392.846 217.258L355.529 195.688L355.787 190.954L393.104 212.524L392.846 217.258Z" fill="#B2B0AF"/>
<path d="M516.687 86.8429L519.503 87.9771C554.45 102.051 593.849 96.893 636.581 72.68L640.577 70.4116L640.865 74.8301C645.139 140.812 636.938 203.697 616.529 261.67C595.793 320.57 563.028 372.862 519.156 417.116L517.639 418.645L516.111 418.862C472.13 425.056 439.177 410.498 418.173 375.564C397.507 341.173 388.968 287.895 392.856 217.228L393.113 212.494L397.11 210.166C439.841 185.303 479.142 145.27 513.89 91.1727L516.687 86.8429Z" fill="#C4C2C0"/>
<path d="M393.104 212.524L355.787 190.954L359.783 188.626L397.11 210.196L393.104 212.524Z" fill="#D6D4D2"/>
<path d="M359.783 188.627L397.1 210.197C403.248 206.616 409.327 202.721 415.337 198.509L378.02 176.939C372.011 181.141 365.932 185.047 359.783 188.627Z" fill="#D6D4D2"/>
<path d="M470.098 149.274L432.771 127.705C415.337 147.174 397.051 163.615 378.02 176.939L415.337 198.509C434.377 185.185 452.664 168.734 470.098 149.274Z" fill="#D6D4D2"/>
<path d="M512.145 374.243C589.119 291.889 609.637 194.337 610.609 116.441C577.08 130.525 545.654 133.78 516.786 126.097C486.54 169 453.408 203.085 417.906 227.841C417.39 261.976 420.266 296.614 429.766 324.939C444.334 356.944 469.77 377.626 512.145 374.243Z" fill="#E9E8E6"/>
<path d="M516.26 226.352C521.616 217.84 524.819 207.898 524.819 199.032C524.819 194.416 523.748 190.165 521.606 187.325C520.178 187.68 518.75 188.39 516.965 189.455C502.694 197.967 490.923 218.195 491.28 234.508C491.28 243.375 494.136 249.766 499.481 252.251L487.353 297.304L534.081 270.694L516.26 226.352Z" fill="#434240"/>
<path d="M534.814 232.022C540.169 223.156 543.373 213.224 543.373 204.348C543.373 189.8 534.1 183.064 521.615 187.315C523.757 190.155 524.828 194.406 524.828 199.022C524.828 207.888 521.615 217.82 516.27 226.341L534.11 270.684L552.665 276L534.814 232.022Z" fill="#D6D4D2"/>
<path d="M534.1 270.694L487.363 297.304L482.375 316.457L552.645 276.02L534.1 270.694Z" fill="white"/>
<path d="M429.766 324.939C443.065 364.597 469.354 391.888 517.55 388.031L512.155 374.243C469.77 377.626 444.334 356.944 429.766 324.939Z" fill="#D6D4D2"/>
<path d="M615.944 114.133C614.159 114.942 612.384 115.701 610.609 116.451C609.637 194.347 589.109 291.889 512.145 374.253L517.54 388.041C599.919 299.898 617.65 194.357 615.944 114.133Z" fill="white"/>
</g>
<defs>
<clipPath id="clip0_114_266">
<rect width="603.558" height="775.466" fill="white" transform="translate(210.315 200.683)"/>
</clipPath>
<clipPath id="clip1_114_266">
<rect width="287.349" height="371.42" fill="white" transform="translate(354.617 48.8521)"/>
</clipPath>
</defs>
</svg>
